<svg xmlns="http://www.w3.org/2000/svg" xmlns:se="http://svg-edit.googlecode.com" xmlns:xlink="http://www.w3.org/1999/xlink" xmlns:dc="http://purl.org/dc/elements/1.1/" xmlns:cc="http://creativecommons.org/ns#" xmlns:rdf="http://www.w3.org/1999/02/22-rdf-syntax-ns#" xmlns:inkscape="http://www.inkscape.org/namespaces/inkscape" width="309" height="309" style="">                                    <title>my vector image</title>                                    <!-- Created with Vector Paint - http://www.vectorpaint.yaks.com/ https://chrome.google.com/webstore/detail/hnbpdiengicdefcjecjbnjnoifekhgdo -->                                    <rect id="backgroundrect" width="100%" height="100%" x="0" y="0" fill="none" stroke="none" style="" class=""/>                                <g class="currentLayer" style=""><title>Layer 1</title><path fill="#cd7f32" stroke="#000000" stroke-width="2" stroke-dasharray="none" stroke-linejoin="round" stroke-linecap="butt" stroke-dashoffset="" fill-rule="nonzero" opacity="1" marker-start="" marker-mid="" marker-end="" d="M1,154.5 C1,69.69337463378906 69.69337463378906,1 154.50001525878906,1 C239.30665588378906,1 308.00001525878906,69.69337463378906 308.00001525878906,154.5 C308.00001525878906,239.306640625 239.30665588378906,308 154.50001525878906,308 C69.69337463378906,308 1,239.306640625 1,154.5 z" id="svg_3" class="selected" filter="" fill-opacity="1" stroke-opacity="1"/><path fill="#ffffff" stroke="#222222" stroke-opacity="1" stroke-width="1" stroke-dasharray="none" stroke-linejoin="round" stroke-linecap="butt" stroke-dashoffset="" fill-rule="nonzero" opacity="0.31" marker-start="" marker-mid="" marker-end="" d="M18.76318359375,154.5 C18.76318359375,79.50726318359375 79.50733947753906,18.763153076171875 154.50001525878906,18.763153076171875 C229.4927520751953,18.763153076171875 290.23683166503906,79.50726318359375 290.23683166503906,154.5 C290.23683166503906,229.49270629882812 229.4927520751953,290.2368469238281 154.50001525878906,290.2368469238281 C79.50733947753906,290.2368469238281 18.76318359375,229.49270629882812 18.76318359375,154.5 z" class="" id="svg_6" fill-opacity="1"/><path fill="none" stroke="#222222" style="color: rgb(0, 0, 0);" stroke-width="2" stroke-linejoin="round" stroke-dashoffset="" fill-rule="nonzero" marker-start="" marker-mid="" marker-end="" id="svg_1" d="M60.66447448730469,133.45672607421875 L132.34815979003906,133.45672607421875 L154.49925231933594,65.35528564453125 L176.6516876220703,133.45672607421875 L248.33555603027344,133.45672607421875 L190.34120178222656,175.54397583007812 L212.4936981201172,243.64471435546875 L154.49925231933594,201.55587768554688 L96.50633239746094,243.64471435546875 L118.65733337402344,175.54397583007812 L60.66447448730469,133.45672607421875 L60.66447448730469,133.45672607421875 z" class="" opacity="1"/></g><defs><filter id="f157" inkscape:menu-tooltip="Make the lightest parts of the object progressively transparent" inkscape:menu="Transparency utilities" inkscape:label="Light eraser" height="1" width="1" y="0" x="0" color-interpolation-filters="sRGB">
            <feColorMatrix result="result14" type="luminanceToAlpha" in="SourceGraphic"/>
            <feComposite in="SourceGraphic" in2="result14" result="fbSourceGraphic" operator="out"/>
            <feBlend mode="normal" in2="fbSourceGraphic" result="result15"/>
        </filter></defs></svg>