<?xml version="1.0" standalone="no"?>
<!DOCTYPE svg PUBLIC "-//W3C//DTD SVG 20010904//EN"
 "http://www.w3.org/TR/2001/REC-SVG-20010904/DTD/svg10.dtd">
<svg version="1.0" xmlns="http://www.w3.org/2000/svg"
 width="16.000000pt" height="16.000000pt" viewBox="0 0 16.000000 16.000000"
 preserveAspectRatio="xMidYMid meet">
<metadata>
Created by potrace 1.11, written by Peter Selinger 2001-2013
</metadata>
<g transform="translate(0.000000,16.000000) scale(0.001600,-0.001600)"
fill="#000000" stroke="none">
<path d="M0 5000 l0 -5000 5000 0 5000 0 0 5000 0 5000 -5000 0 -5000 0 0
-5000z m5192 2966 c136 -37 269 -126 347 -234 l44 -61 67 34 c179 90 353 89
539 -2 111 -53 225 -170 279 -283 41 -86 72 -206 72 -279 l0 -39 58 15 c71 19
219 21 292 4 30 -7 91 -30 135 -51 180 -87 296 -230 345 -426 20 -79 21 -102
17 -1605 -4 -1668 0 -1557 -62 -1774 -88 -305 -236 -548 -469 -773 -238 -228
-517 -374 -851 -443 -105 -22 -134 -23 -655 -27 -383 -2 -556 0 -583 8 -47 14
-102 62 -128 111 -38 76 -17 191 47 251 61 57 72 58 601 58 387 0 507 3 590
16 402 59 754 314 940 680 58 114 87 192 116 319 21 89 21 106 24 1581 l4
1491 -29 54 c-82 157 -308 150 -377 -13 -13 -32 -15 -115 -15 -598 0 -397 -3
-575 -12 -608 -17 -69 -88 -136 -159 -151 -97 -20 -197 27 -238 112 -21 43
-21 50 -21 928 0 494 -4 901 -10 923 -10 47 -33 79 -84 120 -31 26 -47 31
-105 34 -72 4 -112 -9 -159 -52 -60 -54 -57 2 -62 -991 -5 -848 -6 -913 -23
-950 -37 -82 -107 -128 -197 -128 -90 0 -160 46 -197 128 -17 37 -18 106 -23
1060 -4 766 -8 1025 -17 1041 -22 39 -92 93 -135 104 -88 24 -188 -17 -235
-98 l-28 -47 -5 -1025 -5 -1025 -23 -37 c-48 -77 -140 -116 -231 -97 -71 15
-142 82 -159 151 -9 34 -12 262 -12 826 l0 779 -23 44 c-62 117 -222 145 -323
56 -75 -65 -68 49 -74 -1337 l-5 -1245 -22 -41 c-45 -85 -133 -133 -217 -119
-23 3 -75 25 -116 49 -308 178 -601 280 -836 293 -73 4 -129 2 -165 -7 -82
-18 -192 -76 -247 -129 -67 -65 -92 -115 -92 -188 1 -105 52 -179 164 -235 33
-17 139 -78 235 -135 840 -505 1330 -998 1477 -1488 23 -76 27 -110 28 -216 1
-121 0 -127 -26 -165 -15 -21 -44 -50 -65 -64 -31 -21 -48 -25 -114 -25 -70 0
-81 3 -120 30 -60 42 -88 101 -99 211 -5 49 -18 114 -28 144 -105 305 -454
664 -999 1028 -155 103 -422 265 -533 322 -91 47 -223 182 -273 277 -73 139
-98 328 -62 468 65 255 303 474 620 571 83 26 103 28 260 28 241 0 476 -47
708 -142 l97 -40 0 1024 c0 1151 -2 1111 73 1263 79 162 233 285 413 331 119
31 201 27 352 -16 16 -5 22 -2 22 9 0 8 19 52 42 98 59 120 171 231 288 287
47 22 117 48 155 56 82 18 211 15 297 -8z"/>
</g>
</svg>
